<svg width="226" height="72" viewBox="0 0 226 72" fill="none" xmlns="http://www.w3.org/2000/svg">
<path d="M15.976 72C12.904 72 10.344 71.2 8.296 69.6C6.248 68 5.224 65.696 5.224 62.688C5.224 59.04 6.696 56.096 9.64 53.856C12.584 51.68 16.328 49.856 20.872 48.384L22.024 43.2C20.168 45.248 18.28 46.656 16.36 47.424C14.44 48.192 12.488 48.576 10.504 48.576C7.432 48.576 4.936 47.616 3.016 45.696C1.16 43.776 0.232 40.896 0.232 37.056C0.232 35.456 0.488 33.376 1 30.816L7.528 0H21.352L14.44 32.64C14.248 33.408 14.152 34.208 14.152 35.04C14.152 37.856 15.112 39.264 17.032 39.264C18.696 39.264 20.168 38.56 21.448 37.152C22.728 35.68 23.752 33.76 24.52 31.392L31.24 0H45.064L35.56 44.544C38.632 43.52 41.096 41.984 42.952 39.936C44.808 37.888 46.376 34.848 47.656 30.816H51.688C49.96 36.512 47.624 40.704 44.68 43.392C41.736 46.016 38.408 47.808 34.696 48.768L33.256 55.68C31.976 61.888 29.768 66.144 26.632 68.448C23.496 70.816 19.944 72 15.976 72ZM13.768 64.512C14.856 64.512 15.912 63.776 16.936 62.304C17.96 60.832 18.76 58.72 19.336 55.968L19.912 53.184C13.64 55.488 10.504 58.208 10.504 61.344C10.504 62.176 10.792 62.912 11.368 63.552C11.944 64.192 12.744 64.512 13.768 64.512ZM57.1915 48.576C54.1195 48.576 51.6235 47.616 49.7035 45.696C47.8475 43.776 46.9195 40.896 46.9195 37.056C46.9195 35.456 47.1755 33.376 47.6875 30.816L54.2155 0H68.0395L61.1275 32.64C60.9355 33.408 60.8395 34.208 60.8395 35.04C60.8395 37.856 61.7995 39.264 63.7195 39.264C65.5115 39.264 67.0475 38.528 68.3275 37.056C69.6075 35.52 70.6315 33.44 71.3995 30.816L77.9275 0H91.7515L84.8395 32.64C84.5835 33.6 84.4555 34.624 84.4555 35.712C84.4555 36.992 84.7435 37.92 85.3195 38.496C85.9595 39.008 86.9835 39.264 88.3915 39.264C89.4155 39.264 90.1515 39.2 90.5995 39.072C91.1115 38.88 91.4315 38.752 91.5595 38.688C91.3035 41.952 90.1835 44.416 88.1995 46.08C86.2155 47.744 83.7835 48.576 80.9035 48.576C78.2155 48.576 76.0395 47.776 74.3755 46.176C72.7755 44.576 71.8155 42.336 71.4955 39.456C69.3195 42.976 67.0155 45.376 64.5835 46.656C62.2155 47.936 59.7515 48.576 57.1915 48.576ZM116.23 5.184H110.854C109.062 5.184 107.718 5.28 106.822 5.472C105.99 5.664 105.574 6.08 105.574 6.72C105.574 6.848 105.734 7.008 106.054 7.2C106.438 7.328 106.63 7.872 106.63 8.832C106.63 10.496 106.118 11.776 105.094 12.672C104.07 13.504 102.854 13.92 101.446 13.92C100.23 13.92 99.174 13.568 98.278 12.864C97.446 12.096 97.03 11.04 97.03 9.696C97.03 8.352 97.478 6.912 98.374 5.376C99.334 3.84 100.646 2.56 102.31 1.536C104.038 0.511999 105.99 0 108.166 0H132.838L109.318 40.608C109.702 40.608 110.406 40.672 111.43 40.8C113.606 41.056 115.334 41.184 116.614 41.184C119.366 41.184 120.87 40.544 121.126 39.264C120.55 39.2 120.102 39.008 119.782 38.688C119.462 38.304 119.302 37.824 119.302 37.248C119.302 36.224 119.782 35.296 120.742 34.464C121.702 33.568 123.014 33.12 124.678 33.12C126.086 33.12 127.142 33.536 127.846 34.368C128.55 35.2 128.902 36.32 128.902 37.728C128.902 39.264 128.422 40.832 127.462 42.432C126.502 44.032 125.126 45.376 123.334 46.464C121.542 47.488 119.494 48 117.19 48H91.75L116.23 5.184ZM142.317 48.576C139.245 48.576 136.749 47.616 134.829 45.696C132.973 43.776 132.044 40.896 132.044 37.056C132.044 35.456 132.3 33.376 132.812 30.816L139.341 0H153.165L146.253 32.64C146.061 33.6 145.965 34.496 145.965 35.328C145.965 37.952 146.925 39.264 148.845 39.264C150.637 39.264 152.173 38.528 153.453 37.056C154.733 35.52 155.757 33.44 156.525 30.816L163.053 0H176.877L169.965 32.64C169.709 33.6 169.581 34.624 169.581 35.712C169.581 36.992 169.869 37.92 170.445 38.496C171.085 39.008 172.109 39.264 173.517 39.264C175.309 39.264 176.845 38.496 178.125 36.96C179.469 35.424 180.525 33.376 181.292 30.816H185.325C182.957 37.728 180.013 42.432 176.493 44.928C173.037 47.36 169.549 48.576 166.029 48.576C163.277 48.576 161.069 47.808 159.405 46.272C157.805 44.736 156.845 42.464 156.525 39.456C154.349 42.976 152.045 45.376 149.613 46.656C147.245 47.936 144.813 48.576 142.317 48.576ZM190.785 48.576C187.713 48.576 185.217 47.616 183.297 45.696C181.441 43.776 180.513 40.896 180.513 37.056C180.513 35.456 180.769 33.376 181.281 30.816L187.809 0H201.633L194.721 32.64C194.529 33.408 194.433 34.208 194.433 35.04C194.433 37.856 195.393 39.264 197.313 39.264C199.105 39.264 200.641 38.528 201.921 37.056C203.201 35.52 204.225 33.44 204.993 30.816L211.521 0H225.345L218.433 32.64C218.177 33.6 218.049 34.624 218.049 35.712C218.049 36.992 218.337 37.92 218.913 38.496C219.553 39.008 220.577 39.264 221.985 39.264C223.009 39.264 223.745 39.2 224.193 39.072C224.705 38.88 225.025 38.752 225.153 38.688C224.897 41.952 223.777 44.416 221.793 46.08C219.809 47.744 217.377 48.576 214.497 48.576C211.809 48.576 209.633 47.776 207.969 46.176C206.369 44.576 205.409 42.336 205.089 39.456C202.913 42.976 200.609 45.376 198.177 46.656C195.809 47.936 193.345 48.576 190.785 48.576Z" fill="black"/>
</svg>
